<?xml version="1.0" encoding="UTF-8" standalone="no"?>
<!DOCTYPE svg PUBLIC "-//W3C//DTD SVG 1.1//EN" "http://www.w3.org/Graphics/SVG/1.1/DTD/svg11.dtd">
<svg width="20" height="20" viewBox="0 0 1024 1024" version="1.1" xmlns="http://www.w3.org/2000/svg"
     xmlns:xlink="http://www.w3.org/1999/xlink" xml:space="preserve" xmlns:serif="http://www.serif.com/"
     style="fill-rule:evenodd;clip-rule:evenodd;stroke-linejoin:round;stroke-miterlimit:2;">
    <g transform="matrix(29.257143,0,0,29.257143,-10495.731586,-10912.607527)">
        <g transform="matrix(50,0,0,50,356.990826,407.989515)">
            <path d="M0.686,-0L0.555,-0C0.536,-0 0.521,-0.009 0.51,-0.027L0.401,-0.241C0.39,-0.259 0.375,-0.268 0.356,-0.268L0.229,-0.268L0.229,-0L0.084,-0L0.084,-0.387L0.413,-0.387C0.446,-0.387 0.473,-0.396 0.492,-0.413C0.511,-0.43 0.521,-0.453 0.521,-0.481C0.521,-0.509 0.511,-0.532 0.492,-0.549C0.473,-0.566 0.446,-0.575 0.413,-0.575L0.134,-0.575C0.12,-0.575 0.108,-0.58 0.099,-0.59C0.089,-0.599 0.084,-0.611 0.084,-0.625L0.084,-0.7L0.426,-0.7C0.496,-0.7 0.554,-0.68 0.6,-0.64C0.645,-0.601 0.668,-0.548 0.668,-0.483C0.668,-0.437 0.655,-0.397 0.63,-0.363C0.604,-0.33 0.571,-0.305 0.531,-0.288L0.686,-0Z" fill="#CED0D6" fill-rule="nonzero"/>
        </g>
    </g>
</svg>
